<svg version="1.1" id="Capa_1" xmlns="http://www.w3.org/2000/svg" x="0" y="0" viewBox="0 0 500.933 500.933" xml:space="preserve"><path d="M401.532 45.9c0-26.917-18.7-45.9-45.617-45.9h-36.834c-9.917 0-17.85 0-25.217.283-32.3 1.133-61.2 12.183-83.867 31.733-22.95 19.833-37.683 47.317-42.5 79.333-2.267 15.3-2.55 30.033-2.55 44.2h-18.133c-6.233 0-22.667 0-35.133 12.75-12.467 12.467-12.467 28.9-12.467 35.133v60.917c0 7.083 0 23.233 13.033 35.983 12.467 12.183 28.9 12.183 35.7 12.183h17.283V333.2c0 39.667-.283 79.617-.283 119.283 0 7.65-.283 23.233 12.183 35.7 12.467 12.75 28.05 12.75 35.7 12.75h58.083c12.467 0 27.767 0 40.233-12.183 12.75-12.467 12.75-28.05 12.75-40.233V313.083h28.05c28.617 0 46.75-18.133 46.75-47.033v-62.617c0-6.233 0-22.383-12.75-34.85-12.467-12.183-28.333-12.467-34.567-12.467-5.1 0-10.483-.85-15.583-.85-3.683 0-7.65-.567-11.333-.567h-.283v-2.833c4.817 0 9.633.283 14.733.283s10.483.283 15.867 0c28.333-.567 46.183-18.133 46.467-45.9V62.332c.568-5.665.568-11.049.285-16.432zm-34 59.783c0 9.633-2.833 12.183-13.033 12.467-13.317.283-26.35 0-39.667.567-16.717.567-23.517 7.65-24.083 24.367-.567 15.583 0 31.45 0 48.45h23.233c7.367 0 15.017-.85 22.383-.85 5.1 0 10.2-.283 15.3-.283 11.05 0 13.6 2.267 13.6 13.317v62.333c0 10.2-2.833 13.033-13.033 13.033h-61.767v170c0 18.133-.567 18.417-18.983 18.417h-58.083c-12.183 0-13.883-1.983-13.883-14.45 0-54.117.283-108.517.283-162.633v-11.333h-51.284c-12.183 0-14.733-2.267-14.733-14.167v-60.633c0-11.617 2.55-14.167 13.883-14.167h51c.283-3.967.283-7.367.567-10.767.567-20.683-.567-41.933 2.55-62.333 7.367-49.017 44.2-80.467 93.783-82.167 7.933-.283 16.15-.283 24.083-.283 8.783 0 17.567.567 26.35.567 3.4 0 7.083.567 10.483.567h.283c7.933 0 11.617 3.4 11.617 11.333-.566 19.548-.566 38.815-.849 58.648z"/></svg>