<svg version="1.1" id="Capa_1" xmlns="http://www.w3.org/2000/svg" x="0" y="0" viewBox="0 0 553.296 553.296" xml:space="preserve"><path d="M377.247 145.869V0H226.348v125.749c0 7.545-5.03 12.575-12.575 12.575s-12.575-5.03-12.575-12.575V0h-25.15v125.749c0 7.545-5.03 12.575-12.575 12.575-7.545 0-12.575-5.03-12.575-12.575V0h-25.15v125.749c0 7.545-5.03 12.575-12.575 12.575s-12.575-5.03-12.575-12.575V2.515C50.3 7.545 0 37.725 0 88.024v334.492c0 65.389 75.449 130.779 138.324 130.779h334.492c55.33 0 80.479-47.785 80.479-130.779V145.869H377.247zm-168.504 80.479c20.12-27.665 50.3-42.755 82.994-42.755s62.874 15.09 82.994 42.755c12.575 17.605 20.12 37.725 20.12 57.845 0 55.33-45.27 100.599-100.599 100.599s-100.599-45.27-100.599-100.599c-2.515-20.12 2.515-40.24 15.09-57.845zm264.073 301.798H138.324c-50.3 0-113.174-52.815-113.174-105.629V301.798h140.839c7.545 62.875 60.36 113.174 125.749 113.174s118.204-47.785 125.749-110.659h110.659v120.719c0 30.179 5.03 103.114-55.33 103.114z"/><path d="M470.301 0h-67.904v123.234l150.899-2.515V88.024C553.296 22.635 535.691 0 470.301 0zM291.738 347.067c32.695 0 60.359-27.665 60.359-60.36 0-12.575-5.03-25.15-12.575-35.21-10.06-15.09-30.18-25.15-47.785-25.15-20.12 0-37.725 10.06-47.785 25.15-7.545 10.06-10.06 22.635-10.06 35.21-2.514 32.695 25.151 60.36 57.846 60.36z"/></svg>