<svg version="1.1" id="Capa_1" xmlns="http://www.w3.org/2000/svg" x="0" y="0" viewBox="0 0 95 95" xml:space="preserve"><path d="M94.835 23.237c-.915-1.481-3.675-1.12-5.692-1.5h-4.494c.572-1.426 1.382-2.613 2.098-3.896.222-1.771 1.026-2.966.899-5.093.524-.673.711-1.685 1.197-2.398.418-.583.98-1.928.299-2.695-.205-.893-1.192-1.005-2.396-.898-.355.146-.681.317-.897.599-1.81 1.75-3.148 4.099-5.096 5.692-.037.033-.249-.002-.3 0-.349.019-.131.188-.301.3-.591.394-1.04.615-1.494.9-1.15.712-2.211 1.799-3.6 2.097-2.139-.855-4.677-1.317-7.489-1.497-4.678.412-9.314.871-12.285 2.994-3.682 1.416-5.971 4.214-8.691 6.594-.2 1.296-1.383 1.609-1.496 2.996-.019.183-.047.353-.299.3.174.973-.205 1.393-.299 2.097-.002.537.807 1.743 0 2.099-3.323-.482-6.006-2.546-8.691-3.897-2.901-1.457-5.937-2.439-8.388-4.492-2.894-1.303-5.094-3.301-7.19-5.394-.841-1.26-2.193-2.004-2.7-3.598-1.532-.665-.708-3.689-2.995-3.595-1.276-.174-1.393.807-1.797 1.498-.285.915-1.46.939-1.502 2.097-.016.185-.043.356-.298.302-.689 4.404-2.133 8.055-2.098 13.182.521 1.678 1.413 2.986 2.396 4.196-1.69.205-2.894.898-3.596 2.099-.241 4.341 1.528 6.663 2.999 9.286.543 1.556 1.422 2.771 2.397 3.896.07.928.833 1.165 1.196 1.799.075.427.495.505.602.9-.162.43 1.167.73.297.896-1.67.527-4.109.285-5.093 1.5-.442 1.128-.442 3.368 0 4.494.138.96 1.141 1.057 1.198 2.097 2.019 1.683 4.374 3.021 6.595 4.497 2.324.67 4.899 1.091 7.49 1.497-.414 1.385-1.367 2.228-2.397 2.995-3.154 1.542-7.475 1.916-11.089 2.996-2.244.152-3.863.93-6.29.901-1.344.513-3.452.302-4.495.898-.493.278-.411.388-.9.896-.541 1.662.449 2.991 1.796 3.597-.02 1.021.883 1.118 1.501 1.499.358.741 1.025 1.172 1.797 1.498 2.203 1.891 5.126 3.066 7.792 4.496 3.353.74 6.665 1.524 10.188 2.097 3.622.472 7.686.503 11.385.898h3.895c2.066.533 4.977.218 7.49.3.386-.412 1.304-.296 2.099-.3 2.111-1.087 4.835-1.555 6.593-2.995 2.322-.975 3.999-2.595 6.293-3.596 3.502-3.092 7.832-5.354 10.185-9.59.83-.768 1.419-1.776 1.801-2.995 1.067-.632 1.556-1.838 2.394-2.697 1.635-1.661 2.857-3.737 4.196-5.694 1.29-2.006 2.33-4.263 3.597-6.291-.039-1.638 1.235-1.96 1.198-3.597.782-.915.715-2.679 1.501-3.596-.135-1.03.117-1.678.298-2.398.189-5.181-.192-9.795-1.202-13.78 2.376-.626 4.776-1.221 6.595-2.398 2.129-.748 4.04-2.353 3.293-5.095zM81.056 39.716c-.622 3.476-2.491 5.701-4.198 8.091.236 1.532-.421 2.175-.298 3.596a17.468 17.468 0 0 0-1.502 4.193c-.82 1.077-1.341 2.451-2.094 3.596-1.483 2.216-3.145 4.248-4.795 6.294-1.529 2.266-3.689 3.901-5.396 5.991-1.699 1.994-3.809 3.579-5.69 5.394a20.08 20.08 0 0 0-5.093 2.697c-.938.363-1.871.726-2.695 1.199-.716.587-2.02.581-2.701 1.198-4.395.597-9.302.686-14.378.599-4.168-.426-8.552-.64-12.288-1.499-3.731-.765-6.112-2.878-9.289-4.194.619-.977 2.566-.626 3.896-.898.125-.672 1.592-.009 1.795-.6 1.041.24 1.153-.447 2.1-.299 2.279-.814 4.976-1.219 6.893-2.398 1.14-.556 1.641-1.752 2.696-2.395.134-.767.418-1.38.897-1.799.193-1.109.814-1.784.601-3.296.45-.848 1.21-1.385 1.198-2.698-.3-.594-.519-1.279-1.198-1.499-.106-.792-1.526-.271-1.797-.897-1.031.13-1.682-.119-2.397-.302-.622-.176-1.97.371-2.098-.299-3.403-.093-5.255-1.738-7.491-2.995 1.739-1.055 4.172-1.422 5.391-2.997 2.088-.31 4.277-.522 4.497-2.697 0-2.895-3.118-2.673-5.391-3.297-3.128-2.666-4.831-6.757-7.193-10.187.963-.636 2.283-.913 2.994-1.797 1.836.235 2.184-1.014 2.698-2.099.076-1.974-1.345-2.449-2.398-3.297-1.045-.851-1.92-1.87-2.695-2.994-.012-3.309-.087-6.68.3-9.59.254-.056.283.116.298.299.915 1.785 2.261 3.133 3.297 4.794 2.15 1.446 3.742 3.45 6.291 4.497 1.829 1.668 4.482 2.511 6.295 4.194 2.429 1.065 4.685 2.304 6.889 3.595 2.708.789 4.27 2.722 8.091 2.397.804-.392 1.594-.804 2.397-1.2 1.043-1.842-.235-4.361.598-6.591 1.032-2.663 3.225-4.17 5.093-5.991 1.171-.626 2.242-1.356 3.296-2.1 1.404-.393 2.727-.871 3.896-1.497 1.52-.078 2.882-.313 4.197-.599h5.093c.987.211 1.916.482 2.995.599.843.554 1.535 1.264 2.696 1.497 3.19 2.805 5.131 6.858 5.697 12.288-.502 1.961.207 3.538 0 5.993zm1.194-22.773c-.521 1.377-.934 2.859-2.398 3.297-.07-.427-.49-.505-.597-.898-.047-.846.847-.751 1.198-1.198.661-.342.994-1.004 1.797-1.201-.028-.361.437-.185 0 0zM60.078 29.228c.656.544 1.146 1.252 2.098 1.5.406.893 1.272 1.323 2.398 1.497.189-.608 1.399-.196 1.496-.898.703-.094.672-.927 1.199-1.2-.074-2.223-.521-4.071-1.498-5.393-3.065-1.709-6.776.16-5.693 4.494z" fill-rule="evenodd" clip-rule="evenodd" id="twitter_1_"/></svg>